<svg width="221" height="221" viewBox="0 0 221 221" fill="none" xmlns="http://www.w3.org/2000/svg">
<path fill-rule="evenodd" clip-rule="evenodd" d="M6.50879 35.658V185.055C6.50879 204.512 16.6861 214.24 37.0406 214.24H183.744C204.099 214.24 214.276 204.512 214.276 185.055V35.658C214.276 16.2014 204.099 6.47314 183.744 6.47314H37.0406C16.6861 6.47314 6.50879 16.2014 6.50879 35.658Z" fill="white" stroke="#1B1918" stroke-width="11.7689"/>
<path fill-rule="evenodd" clip-rule="evenodd" d="M86.0911 126.627L96.203 94.8346C96.6205 93.1293 98.3236 89.7689 94.1321 90.0048L60.0117 90.0798L61.9769 83.0971L97.6067 83.061C105.022 83.053 105.379 90.2128 103.448 95.3722L93.58 126.646L86.0911 126.627Z" fill="#1B1918" stroke="#1B1918" stroke-width="1.19307"/>
<path fill-rule="evenodd" clip-rule="evenodd" d="M208.539 60.8367L67.3066 59.5975C70.4554 40.7449 130.68 36.7916 146.178 36.8958C124.194 50.6712 185.13 52.898 208.539 53.6036V60.8367Z" fill="#1B1918" stroke="#1B1918" stroke-width="1.19187"/>
<path fill-rule="evenodd" clip-rule="evenodd" d="M117.202 126.62L125.672 98.3448H133.638L127.198 120.107H136.688L143.356 98.3448L151.205 98.344L144.534 119.977L149.855 119.973L147.966 126.648L117.202 126.62Z" fill="#1B1918" stroke="#1B1918" stroke-width="1.18227"/>
<path fill-rule="evenodd" clip-rule="evenodd" d="M100.818 126.592L108.404 126.583L117.044 97.7257C119.111 90.8222 122.722 90.3106 130.093 90.38L209.495 90.4486V82.9908L135.012 82.7666C116.481 82.7969 114.711 84.7268 110.673 95.661L100.818 126.592Z" fill="#1B1918" stroke="#1B1918" stroke-width="1.19213"/>
<path fill-rule="evenodd" clip-rule="evenodd" d="M53.9951 161.582L61.6051 161.573L65.1345 150.023C67.1641 143.381 70.2702 142.445 77.6415 142.512L209.348 142.4V135.343L83.6754 135.491C65.1449 135.52 62.8016 137.588 58.763 148.047L53.9951 161.582Z" fill="#1B1918" stroke="#1B1918" stroke-width="1.19"/>
<path fill-rule="evenodd" clip-rule="evenodd" d="M66.5229 68.2739L64.4346 75.2678L209.505 75.5295V68.4158L66.5229 68.2739Z" fill="#1B1918" stroke="#1B1918" stroke-width="1.19213"/>
<path fill-rule="evenodd" clip-rule="evenodd" d="M5.24479 164.24L2.15332 171.234L216.914 171.496V164.382L5.24479 164.24Z" fill="#1B1918" stroke="#1B1918" stroke-width="1.61653"/>
<path fill-rule="evenodd" clip-rule="evenodd" d="M157.475 149.896L156.021 156.891L209.654 156.835V149.905L157.475 149.896Z" fill="#1B1918" stroke="#1B1918" stroke-width="1.18413"/>
<path fill-rule="evenodd" clip-rule="evenodd" d="M37.9912 161.644L57.828 98.0596L65.4037 98.0662L62.2148 108.141C65.6685 104.953 69.9703 101.091 76.6355 98.0609L90.0527 98.0596C85.1468 100.283 81.76 101.8 77.5763 105.175L82.4119 126.657L73.962 126.652L70.5908 109.708C54.8881 122.104 50.2288 144.804 44.1027 161.682L37.9912 161.644Z" fill="#1B1918" stroke="#1B1918" stroke-width="1.18427"/>
<path fill-rule="evenodd" clip-rule="evenodd" d="M83.8375 147.323L78.2659 162.07L70.7002 162.036L76.081 147.323H83.8375ZM81.7037 158.709L89.1967 158.211C89.1807 158.766 89.3533 159.155 89.7251 159.385C90.0945 159.613 90.6091 159.73 91.2681 159.73C92.4438 159.73 93.4937 159.407 94.3981 158.759C95.0635 158.283 95.8126 157.271 96.644 155.729C95.5751 156.22 94.5396 156.581 93.527 156.809C92.5108 157.039 91.3953 157.151 90.1823 157.151C87.8119 157.151 85.9927 156.694 84.7117 155.779C83.4319 154.864 83.0619 153.708 83.5982 152.31C83.9638 151.357 84.7106 150.487 85.8413 149.704C86.9747 148.919 88.3406 148.327 89.9532 147.925C91.5604 147.524 93.4659 147.323 95.6639 147.323C98.3111 147.323 100.341 147.569 101.752 148.062C103.159 148.552 104.137 149.34 104.68 150.413C105.222 151.487 105.157 152.909 104.481 154.672C103.486 157.264 101.755 159.166 99.2837 160.372C96.8153 161.577 93.8011 162.178 90.236 162.178C88.1367 162.178 86.5238 162.049 85.413 161.784C83.0074 161.208 82.5002 160.246 81.7037 158.709ZM97.6884 152.3C97.9862 151.524 97.8614 150.916 97.3059 150.474C96.7536 150.033 95.9651 149.811 94.931 149.811C93.9519 149.811 93.0693 150.013 92.2754 150.41C91.4771 150.809 90.9262 151.407 90.621 152.203C90.313 153.006 90.4079 153.623 90.9113 154.046C91.4178 154.472 92.1697 154.682 93.1674 154.682C94.2015 154.682 95.141 154.477 95.9845 154.063C96.8247 153.651 97.3947 153.066 97.6884 152.3ZM110.009 154.21C108.979 153.879 108.284 153.505 107.914 153.093C107.408 152.531 107.293 151.885 107.574 151.153C108.034 149.952 109.451 148.964 111.827 148.202C113.669 147.612 115.933 147.323 118.605 147.323C122.139 147.323 124.61 147.686 126.021 148.42C127.428 149.151 127.918 150.072 127.492 151.183C127.244 151.828 126.679 152.434 125.786 152.996C125.122 153.414 124.172 153.819 122.938 154.21C124.229 154.585 125.102 155.078 125.571 155.692C126.041 156.306 126.135 156.983 125.849 157.729C125.573 158.448 125.012 159.12 124.165 159.743C123.315 160.368 122.385 160.85 121.376 161.188C120.358 161.529 119.16 161.779 117.788 161.937C116.409 162.097 114.975 162.178 113.479 162.178C110.677 162.178 108.609 162 107.264 161.64C105.924 161.281 105.008 160.749 104.505 160.051C104.004 159.354 103.915 158.572 104.246 157.709C104.57 156.866 105.206 156.154 106.151 155.568C107.096 154.983 108.384 154.531 110.009 154.21ZM114.391 151.39C114.201 151.885 114.329 152.288 114.786 152.591C115.242 152.894 115.941 153.046 116.895 153.046C117.733 153.046 118.486 152.895 119.144 152.594C119.801 152.293 120.221 151.905 120.404 151.427C120.594 150.932 120.465 150.528 120.018 150.219C119.569 149.91 118.911 149.751 118.03 149.751C117.144 149.751 116.359 149.906 115.681 150.209C115.006 150.512 114.577 150.905 114.391 151.39ZM111.625 157.572C111.382 158.208 111.532 158.727 112.088 159.128C112.646 159.53 113.377 159.73 114.295 159.73C115.169 159.73 116.036 159.527 116.894 159.117C117.746 158.71 118.296 158.191 118.537 157.562C118.779 156.93 118.62 156.413 118.075 156.007C117.528 155.6 116.794 155.398 115.864 155.398C114.953 155.398 114.079 155.593 113.25 155.986C112.423 156.379 111.88 156.906 111.625 157.572ZM150.646 150.801L143.157 151.29C143.173 150.735 143.002 150.344 142.641 150.116C142.279 149.886 141.764 149.771 141.105 149.771C139.916 149.771 138.862 150.1 137.952 150.751C137.292 151.224 136.548 152.23 135.728 153.772C136.789 153.287 137.831 152.93 138.843 152.698C139.863 152.465 140.977 152.35 142.19 152.35C144.548 152.35 146.361 152.806 147.642 153.722C148.922 154.636 149.291 155.796 148.752 157.201C148.389 158.147 147.642 159.012 146.519 159.797C145.397 160.58 144.026 161.175 142.413 161.576C140.794 161.978 138.888 162.178 136.69 162.178C134.043 162.178 132.011 161.937 130.599 161.446C129.192 160.956 128.213 160.171 127.67 159.097C127.128 158.024 127.194 156.598 127.873 154.829C128.867 152.236 130.599 150.335 133.07 149.129C135.539 147.924 138.559 147.323 142.118 147.323C144.217 147.323 145.831 147.451 146.953 147.717C148.071 147.982 148.935 148.372 149.542 148.881C150.151 149.392 150.524 150.029 150.646 150.801ZM134.665 157.201C134.368 157.977 134.497 158.588 135.048 159.027C135.601 159.467 136.395 159.689 137.442 159.689C138.408 159.689 139.285 159.492 140.091 159.091C140.89 158.693 141.444 158.1 141.748 157.308C142.058 156.498 141.958 155.878 141.449 155.455C140.941 155.032 140.184 154.819 139.187 154.819C138.165 154.819 137.229 155.025 136.376 155.438C135.528 155.848 134.959 156.435 134.665 157.201Z" fill="#1B1918" stroke="#1B1918" stroke-width="0.288"/>
</svg>
